<svg xmlns="http://www.w3.org/2000/svg" xmlns:xlink="http://www.w3.org/1999/xlink" width="500" zoomAndPan="magnify" viewBox="0 0 375 374.999991" height="500" preserveAspectRatio="xMidYMid meet" version="1.0"><defs><g/><clipPath id="3ac6c23b2f"><rect x="0" width="367" y="0" height="252"/></clipPath></defs><g transform="matrix(1, 0, 0, 1, 6, 50)"><g clip-path="url(#3ac6c23b2f)"><g fill="#fafff9" fill-opacity="1"><g transform="translate(0.205982, 167.766031)"><g><path d="M 79.46875 -22.078125 C 81.476562 -21.859375 82.285156 -21.300781 81.890625 -20.40625 C 81.503906 -19.519531 80.671875 -18.601562 79.390625 -17.65625 C 78.109375 -16.707031 77.019531 -16.007812 76.125 -15.5625 C 71.21875 -13.101562 66.03125 -11.457031 60.5625 -10.625 C 55.101562 -9.789062 49.75 -8.425781 44.5 -6.53125 C 42.050781 -5.75 39.65625 -4.769531 37.3125 -3.59375 C 34.96875 -2.425781 32.679688 -1.226562 30.453125 0 C 29.109375 0.664062 27.878906 1.332031 26.765625 2 C 25.648438 2.675781 24.648438 3.628906 23.765625 4.859375 C 23.648438 4.960938 23.285156 5.347656 22.671875 6.015625 C 22.054688 6.691406 21.5 7.304688 21 7.859375 C 20.5 8.421875 20.25 8.644531 20.25 8.53125 C 19.132812 9.644531 17.960938 10.648438 16.734375 11.546875 C 17.179688 11.316406 17.847656 10.921875 18.734375 10.359375 C 19.628906 9.804688 20.132812 9.644531 20.25 9.875 C 20.351562 10.539062 19.988281 11.179688 19.15625 11.796875 C 18.320312 12.410156 17.347656 12.910156 16.234375 13.296875 C 15.117188 13.691406 14.28125 13.941406 13.71875 14.046875 C 11.9375 14.273438 10.066406 14.082031 8.109375 13.46875 C 6.160156 12.851562 4.90625 11.539062 4.34375 9.53125 C 3.5625 6.75 3.976562 3.960938 5.59375 1.171875 C 7.21875 -1.617188 8.921875 -3.90625 10.703125 -5.6875 C 12.492188 -7.46875 14.390625 -8.75 16.390625 -9.53125 C 17.617188 -10.09375 18.929688 -10.539062 20.328125 -10.875 C 21.722656 -11.207031 22.644531 -12.046875 23.09375 -13.390625 C 23.09375 -13.273438 23.144531 -13.914062 23.25 -15.3125 C 23.363281 -16.707031 23.644531 -17.515625 24.09375 -17.734375 C 24.207031 -17.734375 24.125 -17.144531 23.84375 -15.96875 C 23.5625 -14.800781 23.421875 -14.21875 23.421875 -14.21875 C 23.648438 -14.882812 23.847656 -15.550781 24.015625 -16.21875 C 24.179688 -16.894531 24.375 -17.625 24.59375 -18.40625 C 24.476562 -18.289062 24.3125 -18.289062 24.09375 -18.40625 C 23.875 -19.1875 23.929688 -20.242188 24.265625 -21.578125 C 24.597656 -22.921875 25.015625 -24.289062 25.515625 -25.6875 C 26.015625 -27.082031 26.320312 -28.113281 26.4375 -28.78125 C 26.882812 -30.34375 27.328125 -31.90625 27.765625 -33.46875 C 28.210938 -35.03125 28.601562 -36.585938 28.9375 -38.140625 C 29.71875 -41.046875 30.332031 -43.863281 30.78125 -46.59375 C 31.226562 -49.332031 31.617188 -52.148438 31.953125 -55.046875 C 32.285156 -58.273438 32.867188 -61.421875 33.703125 -64.484375 C 34.546875 -67.554688 35.359375 -70.601562 36.140625 -73.625 C 36.253906 -73.957031 36.585938 -75.070312 37.140625 -76.96875 C 37.703125 -78.863281 38.289062 -80.703125 38.90625 -82.484375 C 39.519531 -84.265625 39.9375 -85.15625 40.15625 -85.15625 C 40.269531 -85.15625 40.210938 -84.765625 39.984375 -83.984375 C 39.765625 -83.203125 39.710938 -82.757812 39.828125 -82.65625 C 40.378906 -84.320312 40.878906 -85.992188 41.328125 -87.671875 C 41.773438 -89.347656 42.222656 -90.96875 42.671875 -92.53125 C 42.554688 -92.414062 42.300781 -91.96875 41.90625 -91.1875 C 41.519531 -90.40625 41.328125 -90.070312 41.328125 -90.1875 C 41.210938 -91.070312 41.460938 -92.179688 42.078125 -93.515625 C 42.691406 -94.859375 43.164062 -95.976562 43.5 -96.875 L 45.84375 -103.90625 C 46.738281 -106.25 47.660156 -108.585938 48.609375 -110.921875 C 49.554688 -113.265625 50.753906 -115.5 52.203125 -117.625 C 54.097656 -120.300781 56.328125 -122.613281 58.890625 -124.5625 C 61.453125 -126.507812 64.410156 -127.539062 67.765625 -127.65625 C 70.109375 -127.882812 72.445312 -127.632812 74.78125 -126.90625 C 77.125 -126.175781 79.242188 -125.253906 81.140625 -124.140625 C 84.710938 -122.242188 87.25 -119.957031 88.75 -117.28125 C 90.257812 -114.601562 91.128906 -111.484375 91.359375 -107.921875 C 91.578125 -105.015625 91.097656 -101.804688 89.921875 -98.296875 C 88.753906 -94.785156 87.191406 -91.492188 85.234375 -88.421875 C 83.285156 -85.359375 81.140625 -82.929688 78.796875 -81.140625 C 77.460938 -80.140625 75.929688 -79.304688 74.203125 -78.640625 C 72.472656 -77.972656 70.769531 -77.691406 69.09375 -77.796875 C 67.976562 -77.910156 66.945312 -78.273438 66 -78.890625 C 65.050781 -79.503906 64.914062 -80.425781 65.59375 -81.65625 C 65.59375 -81.65625 65.644531 -81.707031 65.75 -81.8125 C 65.863281 -81.925781 65.976562 -82.039062 66.09375 -82.15625 L 65.921875 -82.15625 C 65.921875 -82.15625 66.226562 -82.796875 66.84375 -84.078125 C 67.457031 -85.359375 68.15625 -86.804688 68.9375 -88.421875 C 69.71875 -90.035156 70.46875 -91.425781 71.1875 -92.59375 C 71.914062 -93.769531 72.335938 -94.359375 72.453125 -94.359375 C 72.554688 -94.359375 72.410156 -93.910156 72.015625 -93.015625 C 71.628906 -92.128906 71.269531 -91.210938 70.9375 -90.265625 C 70.601562 -89.316406 70.4375 -88.785156 70.4375 -88.671875 C 73 -94.023438 75.117188 -99.4375 76.796875 -104.90625 C 77.128906 -105.90625 77.519531 -107.210938 77.96875 -108.828125 C 78.414062 -110.453125 78.722656 -112.070312 78.890625 -113.6875 C 79.054688 -115.300781 78.804688 -116.613281 78.140625 -117.625 C 77.460938 -118.738281 76.539062 -119.179688 75.375 -118.953125 C 74.207031 -118.734375 73.035156 -118.234375 71.859375 -117.453125 C 70.691406 -116.671875 69.769531 -115.945312 69.09375 -115.28125 C 66.757812 -112.9375 64.8125 -110.203125 63.25 -107.078125 C 61.6875 -103.953125 60.289062 -100.882812 59.0625 -97.875 C 60.0625 -100.101562 61.203125 -102.582031 62.484375 -105.3125 C 63.773438 -108.050781 65.335938 -110.59375 67.171875 -112.9375 C 69.015625 -115.28125 71.164062 -116.894531 73.625 -117.78125 C 75.289062 -118.457031 76.457031 -118.457031 77.125 -117.78125 C 77.800781 -117.113281 78.140625 -116.164062 78.140625 -114.9375 C 78.140625 -113.71875 78 -112.460938 77.71875 -111.171875 C 77.4375 -109.890625 77.1875 -108.972656 76.96875 -108.421875 C 77.1875 -109.085938 77.378906 -110.117188 77.546875 -111.515625 C 77.710938 -112.910156 77.738281 -114.273438 77.625 -115.609375 C 77.519531 -116.953125 77.019531 -117.734375 76.125 -117.953125 C 74.5625 -118.398438 72.972656 -117.8125 71.359375 -116.1875 C 69.742188 -114.570312 68.546875 -113.265625 67.765625 -112.265625 C 64.304688 -107.804688 61.515625 -102.816406 59.390625 -97.296875 C 57.273438 -91.773438 55.328125 -86.390625 53.546875 -81.140625 C 49.972656 -70.328125 46.847656 -59.34375 44.171875 -48.1875 C 41.492188 -37.03125 38.035156 -26.15625 33.796875 -15.5625 C 39.367188 -17.226562 45 -18.703125 50.6875 -19.984375 C 56.382812 -21.273438 62.128906 -22.085938 67.921875 -22.421875 C 69.816406 -22.535156 71.769531 -22.5625 73.78125 -22.5 C 75.789062 -22.445312 77.6875 -22.304688 79.46875 -22.078125 Z M 44.171875 -94.859375 C 43.273438 -91.960938 42.378906 -89.0625 41.484375 -86.15625 C 40.597656 -83.257812 39.765625 -80.363281 38.984375 -77.46875 C 39.648438 -79.695312 40.375 -81.8125 41.15625 -83.8125 C 41.9375 -85.820312 42.71875 -87.832031 43.5 -89.84375 C 44.84375 -92.75 46.179688 -95.898438 47.515625 -99.296875 C 48.859375 -102.703125 50.363281 -106.078125 52.03125 -109.421875 C 53.707031 -112.765625 55.742188 -115.660156 58.140625 -118.109375 C 60.535156 -120.566406 63.40625 -122.1875 66.75 -122.96875 C 64.070312 -122.414062 61.703125 -121.382812 59.640625 -119.875 C 57.578125 -118.375 55.65625 -116.394531 53.875 -113.9375 C 51.757812 -111.039062 49.921875 -108 48.359375 -104.8125 C 46.796875 -101.632812 45.398438 -98.316406 44.171875 -94.859375 Z M 53.03125 -81.8125 L 53.03125 -81.984375 C 52.363281 -79.972656 51.695312 -77.988281 51.03125 -76.03125 C 50.363281 -74.082031 49.75 -72.109375 49.1875 -70.109375 L 53.03125 -81.65625 L 53.03125 -81.984375 Z M 16.5625 11.71875 L 16.734375 11.546875 C 16.617188 11.546875 16.5625 11.570312 16.5625 11.625 C 16.5625 11.6875 16.5625 11.71875 16.5625 11.71875 Z M 16.5625 11.71875 "/></g></g></g><g fill="#fafff9" fill-opacity="1"><g transform="translate(83.695178, 167.766031)"><g><path d="M 79.140625 -40.828125 C 79.253906 -39.816406 78.835938 -38.554688 77.890625 -37.046875 C 76.941406 -35.546875 76.1875 -34.351562 75.625 -33.46875 C 74.507812 -31.457031 73.171875 -29.53125 71.609375 -27.6875 C 70.046875 -25.84375 68.484375 -24.03125 66.921875 -22.25 C 65.359375 -20.582031 63.546875 -18.660156 61.484375 -16.484375 C 59.421875 -14.304688 57.191406 -12.40625 54.796875 -10.78125 C 52.398438 -9.164062 49.863281 -8.25 47.1875 -8.03125 C 45.394531 -7.914062 43.609375 -8.273438 41.828125 -9.109375 C 40.046875 -9.953125 38.648438 -11.210938 37.640625 -12.890625 C 36.523438 -15.003906 36.050781 -17.257812 36.21875 -19.65625 C 36.382812 -22.050781 36.882812 -24.421875 37.71875 -26.765625 C 38.5625 -29.109375 39.316406 -31.226562 39.984375 -33.125 C 37.867188 -30.5625 35.75 -27.96875 33.625 -25.34375 C 31.507812 -22.726562 29.390625 -20.082031 27.265625 -17.40625 C 26.929688 -17.070312 26.039062 -16.148438 24.59375 -14.640625 C 23.144531 -13.128906 21.5 -11.535156 19.65625 -9.859375 C 17.820312 -8.191406 16.148438 -6.851562 14.640625 -5.84375 C 13.128906 -4.84375 12.15625 -4.625 11.71875 -5.1875 C 11.71875 -5.300781 11.96875 -5.46875 12.46875 -5.6875 C 12.96875 -5.90625 13.160156 -6.070312 13.046875 -6.1875 C 12.265625 -5.738281 11.398438 -5.316406 10.453125 -4.921875 C 9.503906 -4.535156 8.585938 -4.34375 7.703125 -4.34375 C 7.804688 -4.238281 8.082031 -4.1875 8.53125 -4.1875 C 8.644531 -3.851562 8.3125 -3.738281 7.53125 -3.84375 C 6.75 -3.957031 5.9375 -4.179688 5.09375 -4.515625 C 4.257812 -4.847656 3.734375 -5.070312 3.515625 -5.1875 C 2.617188 -6.082031 1.921875 -7.140625 1.421875 -8.359375 C 0.921875 -9.585938 0.554688 -10.757812 0.328125 -11.875 C -0.109375 -14.550781 -0.160156 -17.226562 0.171875 -19.90625 C 0.503906 -22.582031 1.003906 -25.207031 1.671875 -27.78125 C 2.335938 -30.457031 3.0625 -33.101562 3.84375 -35.71875 C 4.625 -38.34375 5.570312 -40.9375 6.6875 -43.5 C 7.25 -44.84375 7.972656 -45.957031 8.859375 -46.84375 C 9.753906 -47.738281 10.484375 -48.742188 11.046875 -49.859375 C 11.929688 -51.972656 13.015625 -54.226562 14.296875 -56.625 C 15.585938 -59.03125 17.125 -60.957031 18.90625 -62.40625 C 20.46875 -63.75 22.390625 -64.363281 24.671875 -64.25 C 26.960938 -64.132812 28.832031 -63.460938 30.28125 -62.234375 C 31.84375 -61.117188 32.398438 -60.171875 31.953125 -59.390625 C 31.503906 -58.609375 30.945312 -57.609375 30.28125 -56.390625 C 30.613281 -56.941406 30.945312 -57.273438 31.28125 -57.390625 C 31.394531 -57.390625 31.117188 -56.71875 30.453125 -55.375 C 29.785156 -54.039062 29.085938 -52.703125 28.359375 -51.359375 C 27.628906 -50.023438 27.097656 -49.359375 26.765625 -49.359375 C 26.765625 -49.359375 26.875 -49.691406 27.09375 -50.359375 C 27.320312 -51.023438 27.550781 -51.582031 27.78125 -52.03125 C 26.65625 -50.132812 25.59375 -48.179688 24.59375 -46.171875 C 23.59375 -44.171875 22.644531 -42.164062 21.75 -40.15625 C 22.082031 -40.601562 22.414062 -40.828125 22.75 -40.828125 C 22.644531 -40.828125 22.253906 -40.046875 21.578125 -38.484375 C 20.910156 -36.921875 20.15625 -35.078125 19.3125 -32.953125 C 18.476562 -30.835938 17.726562 -28.914062 17.0625 -27.1875 C 16.394531 -25.457031 16.003906 -24.425781 15.890625 -24.09375 C 15.671875 -23.3125 15.335938 -22.140625 14.890625 -20.578125 C 14.441406 -19.015625 14.273438 -17.703125 14.390625 -16.640625 C 14.503906 -15.585938 15.285156 -15.285156 16.734375 -15.734375 C 19.179688 -16.398438 21.519531 -18.039062 23.75 -20.65625 C 25.988281 -23.28125 27.832031 -25.484375 29.28125 -27.265625 C 31.289062 -29.503906 33.160156 -31.847656 34.890625 -34.296875 C 36.617188 -36.753906 38.375 -39.207031 40.15625 -41.65625 C 41.382812 -43.550781 42.722656 -45.613281 44.171875 -47.84375 C 45.617188 -50.082031 47.375 -51.867188 49.4375 -53.203125 C 51.5 -54.546875 53.925781 -54.828125 56.71875 -54.046875 C 59.28125 -53.367188 60.5625 -52.140625 60.5625 -50.359375 C 60.5625 -48.578125 60.03125 -46.65625 58.96875 -44.59375 C 57.914062 -42.53125 57 -40.71875 56.21875 -39.15625 C 56.769531 -39.707031 57.046875 -39.929688 57.046875 -39.828125 C 57.390625 -39.484375 57.335938 -38.671875 56.890625 -37.390625 C 56.441406 -36.109375 55.9375 -34.796875 55.375 -33.453125 C 54.820312 -32.117188 54.429688 -31.175781 54.203125 -30.625 C 53.765625 -29.0625 53.265625 -27.382812 52.703125 -25.59375 C 52.140625 -23.8125 51.804688 -22.03125 51.703125 -20.25 C 51.585938 -18.238281 51.835938 -17.34375 52.453125 -17.5625 C 53.066406 -17.789062 54.039062 -18.40625 55.375 -19.40625 C 58.28125 -21.632812 60.929688 -24.113281 63.328125 -26.84375 C 65.722656 -29.582031 68.148438 -32.234375 70.609375 -34.796875 C 70.710938 -34.910156 71.179688 -35.410156 72.015625 -36.296875 C 72.859375 -37.191406 73.8125 -38.140625 74.875 -39.140625 C 75.9375 -40.148438 76.882812 -40.878906 77.71875 -41.328125 C 78.550781 -41.773438 79.023438 -41.609375 79.140625 -40.828125 Z M 53.703125 -37.484375 C 54.265625 -39.265625 54.9375 -41.019531 55.71875 -42.75 C 56.5 -44.476562 57.222656 -46.234375 57.890625 -48.015625 C 57.328125 -46.679688 56.546875 -45.203125 55.546875 -43.578125 C 54.546875 -41.960938 53.679688 -40.375 52.953125 -38.8125 C 52.222656 -37.25 52.082031 -35.742188 52.53125 -34.296875 C 52.53125 -34.078125 52.476562 -33.910156 52.375 -33.796875 C 52.59375 -34.015625 52.703125 -34.179688 52.703125 -34.296875 C 52.921875 -34.742188 53.113281 -35.273438 53.28125 -35.890625 C 53.457031 -36.503906 53.597656 -37.035156 53.703125 -37.484375 Z M 13.890625 -15.890625 C 13.773438 -16.671875 14.191406 -18.734375 15.140625 -22.078125 C 16.085938 -25.429688 17.117188 -28.722656 18.234375 -31.953125 C 17.347656 -29.722656 16.289062 -27.101562 15.0625 -24.09375 C 13.832031 -21.082031 13.441406 -18.347656 13.890625 -15.890625 Z M 39.984375 -32.296875 C 40.210938 -32.960938 40.4375 -33.460938 40.65625 -33.796875 C 40.207031 -33.460938 39.984375 -32.960938 39.984375 -32.296875 Z M 39.984375 -32.296875 "/></g></g></g><g fill="#fafff9" fill-opacity="1"><g transform="translate(150.620407, 167.766031)"><g><path d="M 101.71875 -40.15625 C 102.28125 -38.03125 101.75 -35.710938 100.125 -33.203125 C 98.507812 -30.703125 97.144531 -28.671875 96.03125 -27.109375 C 93.914062 -24.097656 91.796875 -21.082031 89.671875 -18.0625 C 87.554688 -15.050781 85.328125 -12.097656 82.984375 -9.203125 C 81.984375 -7.859375 80.671875 -6.238281 79.046875 -4.34375 C 77.429688 -2.445312 75.703125 -0.773438 73.859375 0.671875 C 72.023438 2.117188 70.101562 2.898438 68.09375 3.015625 C 67.757812 3.015625 66.921875 2.816406 65.578125 2.421875 C 64.242188 2.035156 62.988281 1.5625 61.8125 1 C 60.644531 0.445312 60.117188 -0.0507812 60.234375 -0.5 L 60.40625 -0.328125 C 60.289062 -0.441406 60.203125 -0.582031 60.140625 -0.75 C 60.085938 -0.914062 60.003906 -1.054688 59.890625 -1.171875 C 59.890625 -1.054688 59.5 -1.390625 58.71875 -2.171875 C 57.945312 -2.953125 57.445312 -3.566406 57.21875 -4.015625 C 56.769531 -4.910156 56.40625 -5.882812 56.125 -6.9375 C 55.851562 -8 55.601562 -9.03125 55.375 -10.03125 C 55.15625 -11.707031 55.015625 -13.351562 54.953125 -14.96875 C 54.898438 -16.59375 54.875 -18.1875 54.875 -19.75 C 54.875 -23.195312 55.429688 -26.539062 56.546875 -29.78125 C 56.660156 -30 56.96875 -30.945312 57.46875 -32.625 C 57.96875 -34.300781 58.550781 -35.921875 59.21875 -37.484375 C 59.894531 -39.046875 60.398438 -39.769531 60.734375 -39.65625 C 60.847656 -39.65625 60.820312 -39.429688 60.65625 -38.984375 C 60.488281 -38.535156 60.457031 -38.253906 60.5625 -38.140625 C 60.789062 -39.035156 61.070312 -39.898438 61.40625 -40.734375 C 61.738281 -41.578125 62.070312 -42.441406 62.40625 -43.328125 C 62.1875 -42.890625 61.960938 -42.554688 61.734375 -42.328125 C 61.734375 -42.328125 61.957031 -42.941406 62.40625 -44.171875 C 62.851562 -45.398438 63.410156 -46.820312 64.078125 -48.4375 C 64.742188 -50.050781 65.351562 -51.554688 65.90625 -52.953125 C 66.46875 -54.347656 66.863281 -55.269531 67.09375 -55.71875 C 64.300781 -53.144531 61.984375 -50.210938 60.140625 -46.921875 C 58.304688 -43.640625 55.992188 -40.660156 53.203125 -37.984375 C 51.421875 -36.191406 49.832031 -33.847656 48.4375 -30.953125 C 47.039062 -28.054688 45.617188 -25.4375 44.171875 -23.09375 C 43.390625 -21.75 42.578125 -20.378906 41.734375 -18.984375 C 40.898438 -17.597656 39.894531 -16.707031 38.71875 -16.3125 C 37.550781 -15.925781 36.078125 -16.566406 34.296875 -18.234375 C 32.847656 -19.460938 31.957031 -21.191406 31.625 -23.421875 C 31.507812 -24.535156 31.617188 -25.625 31.953125 -26.6875 C 32.285156 -27.75 32.566406 -28.78125 32.796875 -29.78125 C 33.015625 -30.675781 33.066406 -31.398438 32.953125 -31.953125 C 32.847656 -32.515625 32.847656 -33.296875 32.953125 -34.296875 C 33.296875 -37.304688 34.21875 -40.289062 35.71875 -43.25 C 37.226562 -46.207031 38.539062 -49.078125 39.65625 -51.859375 C 39.769531 -52.304688 40.101562 -53.171875 40.65625 -54.453125 C 41.21875 -55.742188 41.800781 -57.113281 42.40625 -58.5625 C 43.019531 -60.007812 43.410156 -61.289062 43.578125 -62.40625 C 43.742188 -63.519531 43.492188 -64.078125 42.828125 -64.078125 C 42.722656 -64.191406 42.195312 -63.632812 41.25 -62.40625 C 40.300781 -61.175781 39.710938 -60.453125 39.484375 -60.234375 C 38.484375 -59.117188 37.507812 -57.921875 36.5625 -56.640625 C 35.613281 -55.359375 34.691406 -54.101562 33.796875 -52.875 C 31.003906 -48.632812 28.601562 -44.363281 26.59375 -40.0625 C 24.59375 -35.769531 22.421875 -31.394531 20.078125 -26.9375 C 19.179688 -25.15625 18.34375 -23.398438 17.5625 -21.671875 C 16.78125 -19.941406 15.945312 -18.238281 15.0625 -16.5625 C 14.726562 -15.78125 14.304688 -15 13.796875 -14.21875 C 13.296875 -13.4375 12.9375 -12.601562 12.71875 -11.71875 C 12.71875 -11.488281 12.6875 -11.125 12.625 -10.625 C 12.570312 -10.125 12.488281 -9.757812 12.375 -9.53125 C 11.820312 -8.53125 10.875 -8.222656 9.53125 -8.609375 C 8.195312 -9.003906 6.832031 -9.644531 5.4375 -10.53125 C 4.039062 -11.425781 3.066406 -12.210938 2.515625 -12.890625 C 0.722656 -15.003906 -0.0859375 -17.0625 0.078125 -19.0625 C 0.242188 -21.070312 0.273438 -23.25 0.171875 -25.59375 C 0.0546875 -28.71875 0.441406 -31.785156 1.328125 -34.796875 C 2.222656 -37.804688 3.175781 -40.765625 4.1875 -43.671875 C 4.632812 -45.117188 5.132812 -46.539062 5.6875 -47.9375 C 6.25 -49.332031 6.863281 -50.753906 7.53125 -52.203125 C 7.976562 -52.984375 8.476562 -53.734375 9.03125 -54.453125 C 9.59375 -55.179688 10.039062 -55.9375 10.375 -56.71875 C 10.59375 -57.164062 10.675781 -57.582031 10.625 -57.96875 C 10.570312 -58.363281 10.9375 -58.726562 11.71875 -59.0625 C 12.269531 -59.28125 12.9375 -59.222656 13.71875 -58.890625 C 14.5 -58.554688 15.113281 -58.164062 15.5625 -57.71875 C 16.226562 -57.164062 16.785156 -56.441406 17.234375 -55.546875 C 17.679688 -54.648438 18.128906 -53.925781 18.578125 -53.375 C 19.015625 -52.8125 19.507812 -52.25 20.0625 -51.6875 C 20.625 -51.132812 20.738281 -50.242188 20.40625 -49.015625 C 20.40625 -48.910156 20.347656 -48.773438 20.234375 -48.609375 C 20.128906 -48.441406 20.019531 -48.242188 19.90625 -48.015625 C 19.457031 -47.234375 18.867188 -46.453125 18.140625 -45.671875 C 17.421875 -44.890625 16.785156 -44.054688 16.234375 -43.171875 C 16.003906 -42.835938 15.722656 -42.445312 15.390625 -42 C 15.054688 -41.550781 14.832031 -41.101562 14.71875 -40.65625 C 14.613281 -40.101562 14.585938 -39.628906 14.640625 -39.234375 C 14.691406 -38.847656 14.609375 -38.375 14.390625 -37.8125 C 14.160156 -36.695312 13.765625 -35.609375 13.203125 -34.546875 C 12.648438 -33.484375 12.265625 -32.34375 12.046875 -31.125 C 11.929688 -30.34375 11.734375 -29.53125 11.453125 -28.6875 C 11.179688 -27.851562 11.046875 -27.046875 11.046875 -26.265625 C 11.046875 -25.484375 11.15625 -24.703125 11.375 -23.921875 C 11.601562 -23.140625 11.601562 -22.304688 11.375 -21.421875 C 12.601562 -23.421875 13.632812 -25.617188 14.46875 -28.015625 C 15.3125 -30.421875 16.289062 -32.679688 17.40625 -34.796875 C 18.738281 -37.472656 20.101562 -40.207031 21.5 -43 C 22.894531 -45.789062 24.375 -48.46875 25.9375 -51.03125 C 27.269531 -53.144531 28.6875 -55.234375 30.1875 -57.296875 C 31.695312 -59.367188 33.125 -61.460938 34.46875 -63.578125 C 35.582031 -65.359375 37.03125 -67.253906 38.8125 -69.265625 C 40.601562 -71.273438 42.554688 -72.390625 44.671875 -72.609375 C 46.679688 -72.941406 48.46875 -72.46875 50.03125 -71.1875 C 51.59375 -69.90625 52.765625 -68.285156 53.546875 -66.328125 C 54.328125 -64.378906 54.492188 -62.515625 54.046875 -60.734375 C 53.484375 -58.617188 52.671875 -56.523438 51.609375 -54.453125 C 50.554688 -52.390625 49.640625 -50.359375 48.859375 -48.359375 C 47.847656 -45.453125 46.925781 -42.492188 46.09375 -39.484375 C 45.257812 -36.472656 44.394531 -33.519531 43.5 -30.625 C 44.5 -32.738281 45.613281 -34.800781 46.84375 -36.8125 C 48.070312 -38.820312 49.359375 -40.882812 50.703125 -43 L 47.34375 -38.484375 C 47.34375 -38.816406 48.039062 -39.957031 49.4375 -41.90625 C 50.832031 -43.863281 52.476562 -46.125 54.375 -48.6875 C 56.269531 -51.25 58.023438 -53.5625 59.640625 -55.625 C 61.265625 -57.695312 62.296875 -58.953125 62.734375 -59.390625 C 64.296875 -60.847656 66.21875 -62.132812 68.5 -63.25 C 70.789062 -64.363281 72.96875 -64.75 75.03125 -64.40625 C 77.101562 -64.070312 78.53125 -62.347656 79.3125 -59.234375 C 80.425781 -55.210938 80.253906 -51 78.796875 -46.59375 C 77.347656 -42.1875 75.898438 -38.203125 74.453125 -34.640625 C 73.117188 -31.515625 71.640625 -28.164062 70.015625 -24.59375 C 68.398438 -21.019531 67.257812 -17.617188 66.59375 -14.390625 C 66.8125 -14.835938 67.035156 -15.171875 67.265625 -15.390625 C 67.265625 -15.390625 67.175781 -14.71875 67 -13.375 C 66.832031 -12.039062 66.773438 -10.675781 66.828125 -9.28125 C 66.890625 -7.882812 67.144531 -7.132812 67.59375 -7.03125 C 68.707031 -6.800781 70.046875 -7.410156 71.609375 -8.859375 C 73.171875 -10.316406 74.675781 -11.9375 76.125 -13.71875 C 77.570312 -15.5 78.578125 -16.726562 79.140625 -17.40625 C 81.367188 -19.96875 83.597656 -22.554688 85.828125 -25.171875 C 88.054688 -27.796875 90.234375 -30.390625 92.359375 -32.953125 C 92.578125 -33.179688 93.101562 -33.851562 93.9375 -34.96875 C 94.78125 -36.082031 95.757812 -37.222656 96.875 -38.390625 C 97.988281 -39.566406 98.988281 -40.40625 99.875 -40.90625 C 100.769531 -41.40625 101.382812 -41.210938 101.71875 -40.328125 C 101.832031 -40.210938 101.859375 -40.15625 101.796875 -40.15625 C 101.742188 -40.15625 101.71875 -40.15625 101.71875 -40.15625 Z M 41.65625 -51.203125 L 41.828125 -51.359375 L 41.828125 -51.203125 C 42.160156 -52.085938 42.632812 -53.367188 43.25 -55.046875 C 43.863281 -56.722656 44.363281 -58.421875 44.75 -60.140625 C 45.144531 -61.867188 45.175781 -63.125 44.84375 -63.90625 C 45.0625 -63.019531 44.863281 -61.515625 44.25 -59.390625 C 43.632812 -57.273438 42.960938 -55.210938 42.234375 -53.203125 C 41.515625 -51.191406 41.046875 -49.96875 40.828125 -49.53125 C 40.046875 -47.632812 39.179688 -45.707031 38.234375 -43.75 C 37.285156 -41.800781 36.476562 -39.820312 35.8125 -37.8125 C 35.25 -36.132812 34.71875 -34.234375 34.21875 -32.109375 C 33.71875 -29.992188 33.46875 -27.988281 33.46875 -26.09375 C 33.6875 -27.988281 34.128906 -29.882812 34.796875 -31.78125 C 35.472656 -33.6875 36.144531 -35.472656 36.8125 -37.140625 C 37.695312 -39.367188 38.445312 -41.65625 39.0625 -44 C 39.675781 -46.34375 40.488281 -48.578125 41.5 -50.703125 C 41.5 -50.703125 41.523438 -50.753906 41.578125 -50.859375 C 41.628906 -50.972656 41.710938 -51.085938 41.828125 -51.203125 Z M 41.65625 -51.203125 "/></g></g></g><g fill="#fafff9" fill-opacity="1"><g transform="translate(240.132906, 167.766031)"><g><path d="M 64.078125 -41.328125 C 64.410156 -40.660156 64.492188 -40.101562 64.328125 -39.65625 C 64.160156 -39.207031 63.851562 -38.703125 63.40625 -38.140625 L 58.21875 -31.28125 L 49.1875 -19.578125 C 48.070312 -18.128906 46.84375 -16.675781 45.5 -15.21875 C 44.164062 -13.769531 42.882812 -12.265625 41.65625 -10.703125 C 40.4375 -9.035156 39.238281 -7.335938 38.0625 -5.609375 C 36.894531 -3.878906 35.582031 -2.234375 34.125 -0.671875 C 32.675781 0.890625 31.0625 2.453125 29.28125 4.015625 C 27.5 5.578125 25.601562 6.914062 23.59375 8.03125 C 20.914062 9.476562 18.070312 9.757812 15.0625 8.875 C 12.9375 8.3125 10.925781 7.390625 9.03125 6.109375 C 7.132812 4.828125 5.460938 3.347656 4.015625 1.671875 C 3.566406 1.117188 3.175781 0.617188 2.84375 0.171875 C 2.507812 -0.273438 2.285156 -0.832031 2.171875 -1.5 C 2.054688 -2.0625 1.972656 -2.617188 1.921875 -3.171875 C 1.867188 -3.734375 1.84375 -4.296875 1.84375 -4.859375 C 1.726562 -5.859375 1.8125 -6.773438 2.09375 -7.609375 C 2.375 -8.453125 2.566406 -9.375 2.671875 -10.375 C 2.898438 -11.488281 3.207031 -12.546875 3.59375 -13.546875 C 3.988281 -14.554688 4.238281 -15.617188 4.34375 -16.734375 C 4.570312 -17.960938 4.820312 -19.101562 5.09375 -20.15625 C 5.375 -21.21875 5.570312 -22.304688 5.6875 -23.421875 C 5.800781 -24.421875 5.828125 -25.453125 5.765625 -26.515625 C 5.710938 -27.578125 5.796875 -28.609375 6.015625 -29.609375 C 6.242188 -30.285156 6.550781 -30.957031 6.9375 -31.625 C 7.332031 -32.289062 7.640625 -33.015625 7.859375 -33.796875 C 7.640625 -33.347656 7.363281 -32.875 7.03125 -32.375 C 6.695312 -31.875 6.472656 -31.398438 6.359375 -30.953125 C 6.128906 -30.285156 5.90625 -29.613281 5.6875 -28.9375 C 5.46875 -28.269531 5.242188 -27.660156 5.015625 -27.109375 C 4.796875 -26.429688 4.601562 -25.785156 4.4375 -25.171875 C 4.269531 -24.566406 4.070312 -23.925781 3.84375 -23.25 C 3.507812 -22.46875 3.203125 -21.742188 2.921875 -21.078125 C 2.648438 -20.410156 2.457031 -19.628906 2.34375 -18.734375 C 2.226562 -17.953125 2.195312 -17.195312 2.25 -16.46875 C 2.3125 -15.75 2.285156 -15 2.171875 -14.21875 C 2.054688 -13.4375 1.914062 -12.738281 1.75 -12.125 C 1.582031 -11.507812 1.5 -10.8125 1.5 -10.03125 C 1.5 -9.8125 1.554688 -9.503906 1.671875 -9.109375 C 1.785156 -8.722656 1.84375 -8.421875 1.84375 -8.203125 C 1.84375 -7.867188 1.785156 -7.503906 1.671875 -7.109375 C 1.554688 -6.722656 1.5 -6.304688 1.5 -5.859375 C 1.5 -5.078125 1.554688 -4.320312 1.671875 -3.59375 C 1.785156 -2.875 1.894531 -2.066406 2 -1.171875 C 0.664062 -3.515625 0 -5.882812 0 -8.28125 C 0 -10.675781 0.222656 -13.101562 0.671875 -15.5625 C 1.117188 -18.125 1.535156 -20.601562 1.921875 -23 C 2.316406 -25.40625 2.789062 -27.832031 3.34375 -30.28125 C 4.457031 -35.1875 6.128906 -40.007812 8.359375 -44.75 C 10.597656 -49.488281 13.273438 -53.8125 16.390625 -57.71875 C 18.960938 -61.175781 22.003906 -63.992188 25.515625 -66.171875 C 29.023438 -68.347656 33.015625 -68.988281 37.484375 -68.09375 C 39.148438 -67.757812 40.816406 -67.203125 42.484375 -66.421875 C 44.160156 -65.640625 45.5625 -64.523438 46.6875 -63.078125 C 47.90625 -61.515625 48.515625 -59.785156 48.515625 -57.890625 C 48.515625 -55.992188 48.238281 -54.097656 47.6875 -52.203125 C 46.570312 -48.960938 44.785156 -46.03125 42.328125 -43.40625 C 39.878906 -40.789062 37.367188 -38.367188 34.796875 -36.140625 C 33.679688 -35.242188 32.535156 -34.347656 31.359375 -33.453125 C 30.191406 -32.566406 29 -31.734375 27.78125 -30.953125 C 27 -30.503906 26.132812 -30.082031 25.1875 -29.6875 C 24.238281 -29.300781 23.316406 -28.941406 22.421875 -28.609375 L 19.578125 -27.609375 C 19.015625 -27.492188 18.617188 -27.40625 18.390625 -27.34375 C 18.171875 -27.289062 17.953125 -26.988281 17.734375 -26.4375 C 17.285156 -25.65625 17.117188 -24.84375 17.234375 -24 C 17.347656 -23.164062 17.289062 -22.304688 17.0625 -21.421875 C 16.957031 -20.304688 16.765625 -19.242188 16.484375 -18.234375 C 16.203125 -17.234375 15.953125 -16.175781 15.734375 -15.0625 C 15.285156 -13.050781 14.863281 -10.847656 14.46875 -8.453125 C 14.082031 -6.054688 14.113281 -3.796875 14.5625 -1.671875 C 15 0.441406 16.082031 1.414062 17.8125 1.25 C 19.539062 1.082031 21.4375 0.304688 23.5 -1.078125 C 25.570312 -2.472656 27.5 -3.953125 29.28125 -5.515625 C 31.0625 -7.078125 32.285156 -8.140625 32.953125 -8.703125 C 33.847656 -9.484375 34.65625 -10.265625 35.375 -11.046875 C 36.101562 -11.828125 36.859375 -12.609375 37.640625 -13.390625 C 38.085938 -13.941406 38.535156 -14.441406 38.984375 -14.890625 C 39.429688 -15.335938 39.820312 -15.785156 40.15625 -16.234375 C 40.15625 -16.234375 40.207031 -16.398438 40.3125 -16.734375 C 40.425781 -17.066406 40.484375 -17.289062 40.484375 -17.40625 C 41.492188 -18.96875 42.640625 -20.523438 43.921875 -22.078125 C 45.203125 -23.640625 46.457031 -25.148438 47.6875 -26.609375 C 49.25 -28.390625 50.695312 -30.195312 52.03125 -32.03125 C 53.375 -33.875 54.769531 -35.742188 56.21875 -37.640625 C 56.769531 -38.421875 57.460938 -39.394531 58.296875 -40.5625 C 59.140625 -41.738281 60.0625 -42.578125 61.0625 -43.078125 C 62.070312 -43.578125 63.019531 -43.050781 63.90625 -41.5 L 63.90625 -41.328125 C 64.019531 -41.210938 64.078125 -41.210938 64.078125 -41.328125 Z M 22.59375 -39.484375 C 22.144531 -38.703125 21.78125 -37.835938 21.5 -36.890625 C 21.21875 -35.941406 20.851562 -35.019531 20.40625 -34.125 C 25.875 -37.03125 30.5625 -40.769531 34.46875 -45.34375 L 37.3125 -49.015625 C 37.53125 -49.460938 37.832031 -49.851562 38.21875 -50.1875 C 38.613281 -50.53125 38.867188 -50.921875 38.984375 -51.359375 C 39.097656 -51.804688 39.097656 -52.222656 38.984375 -52.609375 C 38.867188 -53.003906 38.867188 -53.425781 38.984375 -53.875 L 39.65625 -57.390625 C 39.769531 -58.285156 39.601562 -59.484375 39.15625 -60.984375 C 38.707031 -62.492188 37.867188 -63.132812 36.640625 -62.90625 C 36.085938 -62.789062 35.53125 -62.425781 34.96875 -61.8125 C 34.40625 -61.207031 33.957031 -60.679688 33.625 -60.234375 L 30.625 -56.21875 C 28.832031 -53.65625 27.378906 -50.976562 26.265625 -48.1875 C 25.148438 -45.394531 23.976562 -42.660156 22.75 -39.984375 C 22.75 -39.984375 22.75 -39.957031 22.75 -39.90625 C 22.75 -39.851562 22.695312 -39.710938 22.59375 -39.484375 Z M 22.59375 -39.484375 "/></g></g></g><g fill="#fafff9" fill-opacity="1"><g transform="translate(292.167335, 167.766031)"><g><path d="M 69.265625 -39.828125 C 69.492188 -38.484375 69.101562 -37.03125 68.09375 -35.46875 C 67.09375 -33.90625 65.921875 -32.398438 64.578125 -30.953125 C 63.242188 -29.503906 62.242188 -28.332031 61.578125 -27.4375 C 59.785156 -25.09375 58 -22.722656 56.21875 -20.328125 C 54.4375 -17.929688 52.539062 -15.617188 50.53125 -13.390625 C 49.519531 -12.378906 48.316406 -11.203125 46.921875 -9.859375 C 45.535156 -8.523438 44.0625 -7.492188 42.5 -6.765625 C 40.9375 -6.046875 39.375 -5.910156 37.8125 -6.359375 C 37.476562 -6.472656 36.722656 -6.832031 35.546875 -7.4375 C 34.378906 -8.050781 33.289062 -8.722656 32.28125 -9.453125 C 31.28125 -10.179688 30.78125 -10.65625 30.78125 -10.875 L 31.28125 -10.546875 L 30.28125 -11.546875 C 30.726562 -10.878906 30.671875 -10.765625 30.109375 -11.203125 C 29.554688 -11.648438 29.222656 -11.875 29.109375 -11.875 C 28.660156 -12.320312 28.269531 -12.851562 27.9375 -13.46875 C 27.601562 -14.082031 27.328125 -14.613281 27.109375 -15.0625 C 26.660156 -15.945312 26.378906 -16.863281 26.265625 -17.8125 C 26.148438 -18.757812 26.09375 -19.679688 26.09375 -20.578125 C 26.09375 -21.472656 26.148438 -22.394531 26.265625 -23.34375 C 26.378906 -24.289062 26.492188 -25.207031 26.609375 -26.09375 C 26.828125 -27.988281 27.019531 -29.828125 27.1875 -31.609375 C 27.351562 -33.398438 27.71875 -35.1875 28.28125 -36.96875 C 28.382812 -37.3125 28.769531 -38.289062 29.4375 -39.90625 C 30.113281 -41.519531 30.84375 -43.109375 31.625 -44.671875 C 32.40625 -46.234375 32.960938 -46.957031 33.296875 -46.84375 C 33.515625 -46.84375 33.484375 -46.644531 33.203125 -46.25 C 32.929688 -45.863281 32.847656 -45.617188 32.953125 -45.515625 L 35.296875 -50.1875 C 35.191406 -50.082031 35.082031 -49.945312 34.96875 -49.78125 C 34.851562 -49.613281 34.6875 -49.472656 34.46875 -49.359375 C 34.351562 -49.472656 34.6875 -50.195312 35.46875 -51.53125 C 36.25 -52.875 36.75 -53.765625 36.96875 -54.203125 C 35.300781 -52.304688 33.769531 -50.351562 32.375 -48.34375 C 30.976562 -46.34375 29.5 -44.335938 27.9375 -42.328125 C 26.820312 -40.878906 25.675781 -39.625 24.5 -38.5625 C 23.332031 -37.5 22.359375 -36.300781 21.578125 -34.96875 C 19.796875 -31.957031 17.925781 -29.03125 15.96875 -26.1875 C 14.019531 -23.34375 12.320312 -20.359375 10.875 -17.234375 L 10.203125 -18.578125 C 9.203125 -17.347656 8.085938 -16.867188 6.859375 -17.140625 C 5.628906 -17.421875 4.484375 -18.09375 3.421875 -19.15625 C 2.367188 -20.21875 1.5625 -21.191406 1 -22.078125 C 0.21875 -23.421875 -0.113281 -24.675781 0 -25.84375 C 0.113281 -27.019531 0.222656 -28.332031 0.328125 -29.78125 C 0.554688 -31.125 0.671875 -32.460938 0.671875 -33.796875 C 0.671875 -35.140625 0.894531 -36.535156 1.34375 -37.984375 C 1.894531 -39.765625 2.476562 -41.488281 3.09375 -43.15625 C 3.707031 -44.832031 4.347656 -46.566406 5.015625 -48.359375 C 5.578125 -50.140625 6.164062 -51.894531 6.78125 -53.625 C 7.394531 -55.351562 8.035156 -57.109375 8.703125 -58.890625 C 9.148438 -60.003906 9.707031 -61.203125 10.375 -62.484375 C 11.039062 -63.773438 11.488281 -64.976562 11.71875 -66.09375 C 11.9375 -66.976562 12.070312 -67.753906 12.125 -68.421875 C 12.1875 -69.097656 12.773438 -69.769531 13.890625 -70.4375 C 14.890625 -71 15.921875 -71.304688 16.984375 -71.359375 C 18.046875 -71.410156 19.132812 -71.328125 20.25 -71.109375 C 21.132812 -70.992188 22.132812 -70.601562 23.25 -69.9375 C 24.363281 -69.269531 25.171875 -68.40625 25.671875 -67.34375 C 26.179688 -66.28125 25.929688 -65.023438 24.921875 -63.578125 C 24.367188 -62.796875 23.644531 -62.015625 22.75 -61.234375 C 21.863281 -60.453125 21.082031 -59.617188 20.40625 -58.734375 C 19.625 -57.835938 19.175781 -57.082031 19.0625 -56.46875 C 18.957031 -55.851562 18.738281 -54.988281 18.40625 -53.875 C 18.289062 -53.207031 17.953125 -52.566406 17.390625 -51.953125 C 16.835938 -51.335938 16.394531 -50.695312 16.0625 -50.03125 C 15.613281 -49.132812 15.191406 -48.128906 14.796875 -47.015625 C 14.410156 -45.898438 14.050781 -44.785156 13.71875 -43.671875 C 13.601562 -43.003906 13.546875 -42.390625 13.546875 -41.828125 C 13.546875 -41.265625 13.492188 -40.648438 13.390625 -39.984375 C 13.273438 -38.203125 12.992188 -36.445312 12.546875 -34.71875 C 12.097656 -32.988281 11.765625 -31.234375 11.546875 -29.453125 C 11.660156 -29.785156 11.910156 -30.171875 12.296875 -30.609375 C 12.691406 -31.054688 12.941406 -31.226562 13.046875 -31.125 C 13.160156 -31.007812 12.910156 -30.476562 12.296875 -29.53125 C 11.679688 -28.582031 11.429688 -28.109375 11.546875 -28.109375 L 21.421875 -42.5 C 20.304688 -41.050781 19.382812 -39.878906 18.65625 -38.984375 C 17.925781 -38.085938 17.5625 -37.640625 17.5625 -37.640625 C 17.457031 -37.753906 18.046875 -38.675781 19.328125 -40.40625 C 20.609375 -42.132812 22.25 -44.304688 24.25 -46.921875 C 26.257812 -49.546875 28.351562 -52.195312 30.53125 -54.875 C 32.707031 -57.550781 34.601562 -59.894531 36.21875 -61.90625 C 37.84375 -63.914062 38.875 -65.144531 39.3125 -65.59375 C 41.769531 -67.820312 44.335938 -68.765625 47.015625 -68.421875 C 49.691406 -68.085938 51.585938 -65.972656 52.703125 -62.078125 C 53.597656 -59.285156 53.457031 -56.773438 52.28125 -54.546875 C 51.113281 -52.316406 49.550781 -50.195312 47.59375 -48.1875 C 45.644531 -46.175781 44.003906 -44.164062 42.671875 -42.15625 C 41.546875 -40.488281 40.535156 -38.707031 39.640625 -36.8125 C 38.753906 -34.914062 37.863281 -33.070312 36.96875 -31.28125 C 36.414062 -30.164062 35.664062 -28.578125 34.71875 -26.515625 C 33.769531 -24.453125 33.179688 -22.472656 32.953125 -20.578125 C 33.179688 -21.804688 33.628906 -23.117188 34.296875 -24.515625 C 34.960938 -25.910156 35.46875 -27 35.8125 -27.78125 C 37.144531 -31.226562 39.09375 -34.179688 41.65625 -36.640625 C 41.101562 -35.523438 40.519531 -34.460938 39.90625 -33.453125 C 39.289062 -32.453125 38.703125 -31.453125 38.140625 -30.453125 L 38.984375 -31.453125 C 39.097656 -31.453125 39.015625 -30.976562 38.734375 -30.03125 C 38.453125 -29.082031 38.171875 -28.101562 37.890625 -27.09375 C 37.617188 -26.09375 37.425781 -25.539062 37.3125 -25.4375 C 36.976562 -24.425781 36.671875 -23.390625 36.390625 -22.328125 C 36.109375 -21.273438 35.914062 -20.191406 35.8125 -19.078125 C 35.695312 -18.960938 35.664062 -18.457031 35.71875 -17.5625 C 35.78125 -16.675781 35.8125 -16.234375 35.8125 -16.234375 L 35.96875 -16.0625 C 35.96875 -16.175781 36.191406 -16.257812 36.640625 -16.3125 C 37.085938 -16.363281 37.367188 -16.445312 37.484375 -16.5625 C 38.703125 -17.007812 39.925781 -17.734375 41.15625 -18.734375 C 42.382812 -19.742188 43.5 -20.640625 44.5 -21.421875 C 46.507812 -22.984375 48.488281 -24.625 50.4375 -26.34375 C 52.394531 -28.070312 54.320312 -29.773438 56.21875 -31.453125 C 57.664062 -32.796875 59.222656 -34.132812 60.890625 -35.46875 C 62.566406 -36.8125 63.960938 -38.207031 65.078125 -39.65625 C 65.640625 -40.4375 66.363281 -41.160156 67.25 -41.828125 C 68.144531 -42.492188 68.816406 -41.828125 69.265625 -39.828125 Z M 69.265625 -39.828125 "/></g></g></g></g></g></svg>