<svg xmlns="http://www.w3.org/2000/svg" xmlns:xlink="http://www.w3.org/1999/xlink" width="500" zoomAndPan="magnify" viewBox="0 0 375 374.999991" height="500" preserveAspectRatio="xMidYMid meet" version="1.0"><defs><g/><clipPath id="19cda27df1"><rect x="0" width="331" y="0" height="227"/></clipPath></defs><g transform="matrix(1, 0, 0, 1, 37, 62)"><g clip-path="url(#19cda27df1)"><g fill="#0052be" fill-opacity="1"><g transform="translate(0.500002, 151.442679)"><g><path d="M 71.5625 -19.890625 C 73.375 -19.691406 74.101562 -19.1875 73.75 -18.375 C 73.40625 -17.570312 72.65625 -16.742188 71.5 -15.890625 C 70.34375 -15.035156 69.363281 -14.410156 68.5625 -14.015625 C 64.132812 -11.804688 59.457031 -10.320312 54.53125 -9.5625 C 49.613281 -8.8125 44.796875 -7.582031 40.078125 -5.875 C 37.867188 -5.175781 35.707031 -4.296875 33.59375 -3.234375 C 31.488281 -2.179688 29.429688 -1.101562 27.421875 0 C 26.210938 0.601562 25.101562 1.207031 24.09375 1.8125 C 23.09375 2.414062 22.191406 3.269531 21.390625 4.375 C 21.296875 4.46875 20.972656 4.816406 20.421875 5.421875 C 19.867188 6.023438 19.363281 6.578125 18.90625 7.078125 C 18.457031 7.578125 18.234375 7.78125 18.234375 7.6875 C 17.222656 8.6875 16.164062 9.585938 15.0625 10.390625 C 15.46875 10.191406 16.070312 9.84375 16.875 9.34375 C 17.675781 8.84375 18.128906 8.691406 18.234375 8.890625 C 18.328125 9.492188 18 10.070312 17.25 10.625 C 16.5 11.175781 15.617188 11.625 14.609375 11.96875 C 13.609375 12.320312 12.859375 12.550781 12.359375 12.65625 C 10.742188 12.851562 9.054688 12.675781 7.296875 12.125 C 5.546875 11.570312 4.421875 10.394531 3.921875 8.59375 C 3.210938 6.082031 3.585938 3.566406 5.046875 1.046875 C 6.503906 -1.460938 8.035156 -3.519531 9.640625 -5.125 C 11.242188 -6.726562 12.953125 -7.882812 14.765625 -8.59375 C 15.867188 -9.09375 17.046875 -9.492188 18.296875 -9.796875 C 19.554688 -10.097656 20.390625 -10.847656 20.796875 -12.046875 C 20.796875 -11.953125 20.84375 -12.53125 20.9375 -13.78125 C 21.039062 -15.039062 21.296875 -15.769531 21.703125 -15.96875 C 21.796875 -15.96875 21.71875 -15.441406 21.46875 -14.390625 C 21.21875 -13.335938 21.09375 -12.8125 21.09375 -12.8125 C 21.289062 -13.414062 21.460938 -14.015625 21.609375 -14.609375 C 21.765625 -15.210938 21.945312 -15.867188 22.15625 -16.578125 C 22.050781 -16.472656 21.898438 -16.472656 21.703125 -16.578125 C 21.492188 -17.273438 21.539062 -18.226562 21.84375 -19.4375 C 22.144531 -20.644531 22.519531 -21.875 22.96875 -23.125 C 23.425781 -24.382812 23.707031 -25.316406 23.8125 -25.921875 C 24.207031 -27.328125 24.601562 -28.734375 25 -30.140625 C 25.40625 -31.546875 25.757812 -32.953125 26.0625 -34.359375 C 26.769531 -36.960938 27.320312 -39.492188 27.71875 -41.953125 C 28.125 -44.421875 28.476562 -46.960938 28.78125 -49.578125 C 29.082031 -52.484375 29.609375 -55.316406 30.359375 -58.078125 C 31.109375 -60.847656 31.835938 -63.585938 32.546875 -66.296875 C 32.648438 -66.597656 32.953125 -67.601562 33.453125 -69.3125 C 33.953125 -71.019531 34.476562 -72.675781 35.03125 -74.28125 C 35.582031 -75.882812 35.957031 -76.6875 36.15625 -76.6875 C 36.257812 -76.6875 36.207031 -76.332031 36 -75.625 C 35.800781 -74.925781 35.753906 -74.53125 35.859375 -74.4375 C 36.359375 -75.9375 36.804688 -77.441406 37.203125 -78.953125 C 37.609375 -80.460938 38.015625 -81.921875 38.421875 -83.328125 C 38.316406 -83.222656 38.085938 -82.816406 37.734375 -82.109375 C 37.390625 -81.410156 37.21875 -81.113281 37.21875 -81.21875 C 37.113281 -82.019531 37.335938 -83.019531 37.890625 -84.21875 C 38.441406 -85.425781 38.867188 -86.429688 39.171875 -87.234375 L 41.28125 -93.5625 C 42.082031 -95.675781 42.910156 -97.785156 43.765625 -99.890625 C 44.617188 -102.003906 45.703125 -104.015625 47.015625 -105.921875 C 48.722656 -108.328125 50.726562 -110.410156 53.03125 -112.171875 C 55.34375 -113.929688 58.003906 -114.863281 61.015625 -114.96875 C 63.128906 -115.164062 65.238281 -114.9375 67.34375 -114.28125 C 69.457031 -113.632812 71.367188 -112.804688 73.078125 -111.796875 C 76.285156 -110.085938 78.566406 -108.023438 79.921875 -105.609375 C 81.285156 -103.203125 82.066406 -100.394531 82.265625 -97.1875 C 82.460938 -94.570312 82.035156 -91.679688 80.984375 -88.515625 C 79.929688 -85.359375 78.523438 -82.394531 76.765625 -79.625 C 75.003906 -76.863281 73.070312 -74.679688 70.96875 -73.078125 C 69.757812 -72.171875 68.375 -71.414062 66.8125 -70.8125 C 65.257812 -70.207031 63.734375 -69.957031 62.234375 -70.0625 C 61.222656 -70.164062 60.289062 -70.492188 59.4375 -71.046875 C 58.582031 -71.597656 58.457031 -72.425781 59.0625 -73.53125 C 59.0625 -73.53125 59.109375 -73.578125 59.203125 -73.671875 C 59.304688 -73.773438 59.410156 -73.878906 59.515625 -73.984375 L 59.359375 -73.984375 C 59.359375 -73.984375 59.632812 -74.5625 60.1875 -75.71875 C 60.738281 -76.875 61.363281 -78.175781 62.0625 -79.625 C 62.769531 -81.082031 63.453125 -82.335938 64.109375 -83.390625 C 64.765625 -84.453125 65.140625 -84.984375 65.234375 -84.984375 C 65.335938 -84.984375 65.210938 -84.578125 64.859375 -83.765625 C 64.515625 -82.960938 64.191406 -82.132812 63.890625 -81.28125 C 63.585938 -80.425781 63.4375 -79.953125 63.4375 -79.859375 C 65.738281 -84.679688 67.644531 -89.550781 69.15625 -94.46875 C 69.457031 -95.375 69.804688 -96.554688 70.203125 -98.015625 C 70.609375 -99.472656 70.882812 -100.925781 71.03125 -102.375 C 71.1875 -103.832031 70.960938 -105.015625 70.359375 -105.921875 C 69.753906 -106.921875 68.925781 -107.320312 67.875 -107.125 C 66.820312 -106.925781 65.765625 -106.472656 64.703125 -105.765625 C 63.648438 -105.066406 62.828125 -104.414062 62.234375 -103.8125 C 60.117188 -101.707031 58.359375 -99.25 56.953125 -96.4375 C 55.546875 -93.625 54.289062 -90.859375 53.1875 -88.140625 C 54.09375 -90.148438 55.125 -92.382812 56.28125 -94.84375 C 57.4375 -97.3125 58.84375 -99.597656 60.5 -101.703125 C 62.15625 -103.816406 64.085938 -105.273438 66.296875 -106.078125 C 67.804688 -106.679688 68.859375 -106.679688 69.453125 -106.078125 C 70.054688 -105.472656 70.359375 -104.617188 70.359375 -103.515625 C 70.359375 -102.410156 70.234375 -101.28125 69.984375 -100.125 C 69.734375 -98.96875 69.507812 -98.140625 69.3125 -97.640625 C 69.507812 -98.242188 69.679688 -99.171875 69.828125 -100.421875 C 69.984375 -101.679688 70.007812 -102.910156 69.90625 -104.109375 C 69.8125 -105.316406 69.363281 -106.019531 68.5625 -106.21875 C 67.15625 -106.625 65.722656 -106.097656 64.265625 -104.640625 C 62.804688 -103.179688 61.722656 -102 61.015625 -101.09375 C 57.898438 -97.082031 55.390625 -92.585938 53.484375 -87.609375 C 51.578125 -82.640625 49.820312 -77.796875 48.21875 -73.078125 C 45 -63.328125 42.179688 -53.429688 39.765625 -43.390625 C 37.359375 -33.347656 34.25 -23.554688 30.4375 -14.015625 C 35.457031 -15.515625 40.53125 -16.84375 45.65625 -18 C 50.78125 -19.15625 55.953125 -19.882812 61.171875 -20.1875 C 62.878906 -20.289062 64.632812 -20.316406 66.4375 -20.265625 C 68.25 -20.210938 69.957031 -20.085938 71.5625 -19.890625 Z M 39.78125 -85.4375 C 38.976562 -82.820312 38.171875 -80.207031 37.359375 -77.59375 C 36.554688 -74.976562 35.804688 -72.367188 35.109375 -69.765625 C 35.710938 -71.773438 36.363281 -73.679688 37.0625 -75.484375 C 37.769531 -77.296875 38.472656 -79.101562 39.171875 -80.90625 C 40.378906 -83.519531 41.582031 -86.359375 42.78125 -89.421875 C 43.988281 -92.484375 45.347656 -95.519531 46.859375 -98.53125 C 48.367188 -101.550781 50.203125 -104.164062 52.359375 -106.375 C 54.515625 -108.582031 57.101562 -110.039062 60.125 -110.75 C 57.707031 -110.238281 55.566406 -109.304688 53.703125 -107.953125 C 51.847656 -106.597656 50.117188 -104.816406 48.515625 -102.609375 C 46.609375 -99.992188 44.953125 -97.253906 43.546875 -94.390625 C 42.140625 -91.535156 40.882812 -88.550781 39.78125 -85.4375 Z M 47.765625 -73.671875 L 47.765625 -73.828125 C 47.160156 -72.015625 46.554688 -70.226562 45.953125 -68.46875 C 45.347656 -66.71875 44.796875 -64.9375 44.296875 -63.125 L 47.765625 -73.53125 L 47.765625 -73.828125 Z M 14.921875 10.546875 L 15.0625 10.390625 C 14.96875 10.390625 14.921875 10.414062 14.921875 10.46875 C 14.921875 10.519531 14.921875 10.546875 14.921875 10.546875 Z M 14.921875 10.546875 "/></g></g></g><g fill="#0052be" fill-opacity="1"><g transform="translate(75.685546, 151.442679)"><g><path d="M 71.265625 -36.765625 C 71.367188 -35.859375 70.992188 -34.726562 70.140625 -33.375 C 69.285156 -32.019531 68.609375 -30.941406 68.109375 -30.140625 C 67.097656 -28.328125 65.890625 -26.59375 64.484375 -24.9375 C 63.078125 -23.28125 61.671875 -21.648438 60.265625 -20.046875 C 58.859375 -18.535156 57.222656 -16.800781 55.359375 -14.84375 C 53.503906 -12.882812 51.5 -11.175781 49.34375 -9.71875 C 47.1875 -8.257812 44.898438 -7.429688 42.484375 -7.234375 C 40.878906 -7.128906 39.269531 -7.453125 37.65625 -8.203125 C 36.050781 -8.960938 34.800781 -10.097656 33.90625 -11.609375 C 32.894531 -13.515625 32.460938 -15.546875 32.609375 -17.703125 C 32.765625 -19.859375 33.21875 -21.988281 33.96875 -24.09375 C 34.726562 -26.207031 35.410156 -28.117188 36.015625 -29.828125 C 34.097656 -27.523438 32.1875 -25.191406 30.28125 -22.828125 C 28.375 -20.460938 26.46875 -18.078125 24.5625 -15.671875 C 24.257812 -15.367188 23.453125 -14.539062 22.140625 -13.1875 C 20.835938 -11.832031 19.359375 -10.398438 17.703125 -8.890625 C 16.046875 -7.378906 14.539062 -6.171875 13.1875 -5.265625 C 11.832031 -4.367188 10.953125 -4.171875 10.546875 -4.671875 C 10.546875 -4.773438 10.769531 -4.925781 11.21875 -5.125 C 11.675781 -5.320312 11.851562 -5.472656 11.75 -5.578125 C 11.050781 -5.171875 10.273438 -4.789062 9.421875 -4.4375 C 8.566406 -4.09375 7.738281 -3.921875 6.9375 -3.921875 C 7.03125 -3.816406 7.28125 -3.765625 7.6875 -3.765625 C 7.78125 -3.460938 7.472656 -3.359375 6.765625 -3.453125 C 6.066406 -3.554688 5.34375 -3.757812 4.59375 -4.0625 C 3.84375 -4.363281 3.367188 -4.566406 3.171875 -4.671875 C 2.359375 -5.472656 1.726562 -6.425781 1.28125 -7.53125 C 0.832031 -8.632812 0.503906 -9.691406 0.296875 -10.703125 C -0.0976562 -13.109375 -0.144531 -15.515625 0.15625 -17.921875 C 0.457031 -20.335938 0.90625 -22.703125 1.5 -25.015625 C 2.101562 -27.421875 2.753906 -29.800781 3.453125 -32.15625 C 4.160156 -34.519531 5.019531 -36.859375 6.03125 -39.171875 C 6.53125 -40.378906 7.179688 -41.382812 7.984375 -42.1875 C 8.785156 -42.988281 9.4375 -43.894531 9.9375 -44.90625 C 10.75 -46.8125 11.726562 -48.84375 12.875 -51 C 14.03125 -53.15625 15.414062 -54.890625 17.03125 -56.203125 C 18.4375 -57.410156 20.164062 -57.960938 22.21875 -57.859375 C 24.28125 -57.753906 25.960938 -57.148438 27.265625 -56.046875 C 28.671875 -55.046875 29.171875 -54.191406 28.765625 -53.484375 C 28.367188 -52.785156 27.867188 -51.882812 27.265625 -50.78125 C 27.566406 -51.28125 27.867188 -51.582031 28.171875 -51.6875 C 28.273438 -51.6875 28.023438 -51.082031 27.421875 -49.875 C 26.816406 -48.664062 26.1875 -47.457031 25.53125 -46.25 C 24.882812 -45.050781 24.410156 -44.453125 24.109375 -44.453125 C 24.109375 -44.453125 24.207031 -44.75 24.40625 -45.34375 C 24.601562 -45.945312 24.804688 -46.453125 25.015625 -46.859375 C 24.003906 -45.148438 23.046875 -43.390625 22.140625 -41.578125 C 21.242188 -39.773438 20.394531 -37.96875 19.59375 -36.15625 C 19.894531 -36.5625 20.191406 -36.765625 20.484375 -36.765625 C 20.390625 -36.765625 20.039062 -36.0625 19.4375 -34.65625 C 18.832031 -33.25 18.148438 -31.585938 17.390625 -29.671875 C 16.640625 -27.765625 15.960938 -26.035156 15.359375 -24.484375 C 14.765625 -22.929688 14.414062 -22.003906 14.3125 -21.703125 C 14.113281 -20.992188 13.8125 -19.9375 13.40625 -18.53125 C 13.007812 -17.125 12.859375 -15.941406 12.953125 -14.984375 C 13.054688 -14.035156 13.757812 -13.757812 15.0625 -14.15625 C 17.269531 -14.757812 19.378906 -16.242188 21.390625 -18.609375 C 23.398438 -20.972656 25.0625 -22.957031 26.375 -24.5625 C 28.175781 -26.570312 29.851562 -28.679688 31.40625 -30.890625 C 32.96875 -33.097656 34.550781 -35.304688 36.15625 -37.515625 C 37.257812 -39.222656 38.460938 -41.082031 39.765625 -43.09375 C 41.078125 -45.101562 42.660156 -46.707031 44.515625 -47.90625 C 46.378906 -49.113281 48.566406 -49.367188 51.078125 -48.671875 C 53.390625 -48.066406 54.546875 -46.957031 54.546875 -45.34375 C 54.546875 -43.738281 54.066406 -42.003906 53.109375 -40.140625 C 52.160156 -38.285156 51.332031 -36.65625 50.625 -35.25 C 51.125 -35.757812 51.375 -35.960938 51.375 -35.859375 C 51.675781 -35.554688 51.625 -34.828125 51.21875 -33.671875 C 50.820312 -32.515625 50.375 -31.332031 49.875 -30.125 C 49.375 -28.925781 49.019531 -28.078125 48.8125 -27.578125 C 48.414062 -26.171875 47.960938 -24.660156 47.453125 -23.046875 C 46.953125 -21.441406 46.65625 -19.835938 46.5625 -18.234375 C 46.457031 -16.421875 46.679688 -15.613281 47.234375 -15.8125 C 47.785156 -16.019531 48.664062 -16.578125 49.875 -17.484375 C 52.488281 -19.484375 54.875 -21.710938 57.03125 -24.171875 C 59.1875 -26.640625 61.367188 -29.03125 63.578125 -31.34375 C 63.679688 -31.4375 64.109375 -31.882812 64.859375 -32.6875 C 65.617188 -33.5 66.472656 -34.351562 67.421875 -35.25 C 68.378906 -36.15625 69.234375 -36.804688 69.984375 -37.203125 C 70.734375 -37.609375 71.160156 -37.460938 71.265625 -36.765625 Z M 48.359375 -33.75 C 48.867188 -35.351562 49.472656 -36.929688 50.171875 -38.484375 C 50.878906 -40.046875 51.53125 -41.632812 52.125 -43.25 C 51.625 -42.039062 50.921875 -40.707031 50.015625 -39.25 C 49.117188 -37.789062 48.34375 -36.359375 47.6875 -34.953125 C 47.03125 -33.546875 46.90625 -32.191406 47.3125 -30.890625 C 47.3125 -30.691406 47.257812 -30.539062 47.15625 -30.4375 C 47.363281 -30.632812 47.46875 -30.785156 47.46875 -30.890625 C 47.664062 -31.285156 47.835938 -31.757812 47.984375 -32.3125 C 48.140625 -32.863281 48.265625 -33.34375 48.359375 -33.75 Z M 12.5 -14.3125 C 12.40625 -15.019531 12.785156 -16.878906 13.640625 -19.890625 C 14.492188 -22.898438 15.421875 -25.863281 16.421875 -28.78125 C 15.617188 -26.769531 14.664062 -24.40625 13.5625 -21.6875 C 12.457031 -18.976562 12.101562 -16.519531 12.5 -14.3125 Z M 36.015625 -29.078125 C 36.210938 -29.679688 36.410156 -30.132812 36.609375 -30.4375 C 36.210938 -30.132812 36.015625 -29.679688 36.015625 -29.078125 Z M 36.015625 -29.078125 "/></g></g></g><g fill="#0052be" fill-opacity="1"><g transform="translate(135.954539, 151.442679)"><g><path d="M 91.609375 -36.15625 C 92.109375 -34.25 91.628906 -32.164062 90.171875 -29.90625 C 88.722656 -27.644531 87.492188 -25.8125 86.484375 -24.40625 C 84.578125 -21.695312 82.664062 -18.984375 80.75 -16.265625 C 78.84375 -13.554688 76.835938 -10.894531 74.734375 -8.28125 C 73.828125 -7.082031 72.644531 -5.628906 71.1875 -3.921875 C 69.726562 -2.210938 68.171875 -0.707031 66.515625 0.59375 C 64.859375 1.90625 63.128906 2.613281 61.328125 2.71875 C 61.023438 2.71875 60.269531 2.539062 59.0625 2.1875 C 57.851562 1.832031 56.722656 1.40625 55.671875 0.90625 C 54.617188 0.40625 54.140625 -0.046875 54.234375 -0.453125 L 54.390625 -0.296875 C 54.285156 -0.398438 54.207031 -0.523438 54.15625 -0.671875 C 54.113281 -0.828125 54.039062 -0.957031 53.9375 -1.0625 C 53.9375 -0.957031 53.582031 -1.253906 52.875 -1.953125 C 52.175781 -2.660156 51.726562 -3.210938 51.53125 -3.609375 C 51.125 -4.421875 50.796875 -5.300781 50.546875 -6.25 C 50.296875 -7.207031 50.070312 -8.140625 49.875 -9.046875 C 49.675781 -10.546875 49.550781 -12.023438 49.5 -13.484375 C 49.445312 -14.941406 49.421875 -16.375 49.421875 -17.78125 C 49.421875 -20.894531 49.921875 -23.90625 50.921875 -26.8125 C 51.023438 -27.019531 51.300781 -27.875 51.75 -29.375 C 52.207031 -30.882812 52.734375 -32.34375 53.328125 -33.75 C 53.929688 -35.15625 54.382812 -35.804688 54.6875 -35.703125 C 54.789062 -35.703125 54.765625 -35.5 54.609375 -35.09375 C 54.460938 -34.695312 54.441406 -34.453125 54.546875 -34.359375 C 54.742188 -35.160156 54.992188 -35.9375 55.296875 -36.6875 C 55.597656 -37.4375 55.898438 -38.21875 56.203125 -39.03125 C 56.003906 -38.625 55.800781 -38.320312 55.59375 -38.125 C 55.59375 -38.125 55.789062 -38.675781 56.1875 -39.78125 C 56.59375 -40.882812 57.097656 -42.160156 57.703125 -43.609375 C 58.304688 -45.066406 58.859375 -46.425781 59.359375 -47.6875 C 59.867188 -48.945312 60.222656 -49.773438 60.421875 -50.171875 C 57.910156 -47.859375 55.828125 -45.21875 54.171875 -42.25 C 52.515625 -39.289062 50.425781 -36.609375 47.90625 -34.203125 C 46.300781 -32.597656 44.867188 -30.488281 43.609375 -27.875 C 42.359375 -25.257812 41.082031 -22.898438 39.78125 -20.796875 C 39.070312 -19.585938 38.34375 -18.351562 37.59375 -17.09375 C 36.84375 -15.84375 35.9375 -15.039062 34.875 -14.6875 C 33.820312 -14.332031 32.492188 -14.910156 30.890625 -16.421875 C 29.578125 -17.523438 28.773438 -19.082031 28.484375 -21.09375 C 28.378906 -22.09375 28.476562 -23.070312 28.78125 -24.03125 C 29.082031 -24.988281 29.332031 -25.914062 29.53125 -26.8125 C 29.726562 -27.625 29.773438 -28.28125 29.671875 -28.78125 C 29.578125 -29.28125 29.582031 -29.984375 29.6875 -30.890625 C 29.988281 -33.597656 30.816406 -36.28125 32.171875 -38.9375 C 33.523438 -41.601562 34.703125 -44.191406 35.703125 -46.703125 C 35.804688 -47.109375 36.109375 -47.890625 36.609375 -49.046875 C 37.109375 -50.203125 37.632812 -51.429688 38.1875 -52.734375 C 38.75 -54.035156 39.101562 -55.1875 39.25 -56.1875 C 39.394531 -57.195312 39.171875 -57.703125 38.578125 -57.703125 C 38.472656 -57.804688 37.992188 -57.304688 37.140625 -56.203125 C 36.285156 -55.097656 35.757812 -54.441406 35.5625 -54.234375 C 34.65625 -53.234375 33.773438 -52.15625 32.921875 -51 C 32.066406 -49.84375 31.238281 -48.710938 30.4375 -47.609375 C 27.925781 -43.796875 25.765625 -39.953125 23.953125 -36.078125 C 22.148438 -32.210938 20.191406 -28.273438 18.078125 -24.265625 C 17.273438 -22.648438 16.519531 -21.0625 15.8125 -19.5 C 15.113281 -17.945312 14.363281 -16.421875 13.5625 -14.921875 C 13.257812 -14.210938 12.878906 -13.503906 12.421875 -12.796875 C 11.972656 -12.097656 11.648438 -11.347656 11.453125 -10.546875 C 11.453125 -10.347656 11.425781 -10.019531 11.375 -9.5625 C 11.320312 -9.113281 11.25 -8.789062 11.15625 -8.59375 C 10.644531 -7.6875 9.785156 -7.40625 8.578125 -7.75 C 7.378906 -8.101562 6.148438 -8.679688 4.890625 -9.484375 C 3.640625 -10.296875 2.765625 -11.003906 2.265625 -11.609375 C 0.648438 -13.515625 -0.0820312 -15.367188 0.0625 -17.171875 C 0.21875 -18.984375 0.25 -20.941406 0.15625 -23.046875 C 0.0507812 -25.859375 0.398438 -28.617188 1.203125 -31.328125 C 2.003906 -34.046875 2.859375 -36.710938 3.765625 -39.328125 C 4.171875 -40.628906 4.625 -41.90625 5.125 -43.15625 C 5.625 -44.414062 6.175781 -45.703125 6.78125 -47.015625 C 7.1875 -47.710938 7.640625 -48.382812 8.140625 -49.03125 C 8.640625 -49.6875 9.039062 -50.367188 9.34375 -51.078125 C 9.539062 -51.484375 9.613281 -51.859375 9.5625 -52.203125 C 9.519531 -52.554688 9.847656 -52.882812 10.546875 -53.1875 C 11.046875 -53.382812 11.644531 -53.332031 12.34375 -53.03125 C 13.050781 -52.726562 13.609375 -52.378906 14.015625 -51.984375 C 14.617188 -51.484375 15.117188 -50.828125 15.515625 -50.015625 C 15.921875 -49.210938 16.320312 -48.5625 16.71875 -48.0625 C 17.125 -47.5625 17.578125 -47.054688 18.078125 -46.546875 C 18.578125 -46.046875 18.675781 -45.242188 18.375 -44.140625 C 18.375 -44.046875 18.320312 -43.921875 18.21875 -43.765625 C 18.125 -43.617188 18.03125 -43.445312 17.9375 -43.25 C 17.53125 -42.539062 17 -41.832031 16.34375 -41.125 C 15.695312 -40.425781 15.117188 -39.675781 14.609375 -38.875 C 14.410156 -38.570312 14.160156 -38.21875 13.859375 -37.8125 C 13.554688 -37.414062 13.359375 -37.015625 13.265625 -36.609375 C 13.160156 -36.109375 13.132812 -35.679688 13.1875 -35.328125 C 13.238281 -34.984375 13.160156 -34.554688 12.953125 -34.046875 C 12.753906 -33.046875 12.40625 -32.066406 11.90625 -31.109375 C 11.40625 -30.160156 11.050781 -29.132812 10.84375 -28.03125 C 10.75 -27.320312 10.570312 -26.585938 10.3125 -25.828125 C 10.0625 -25.078125 9.9375 -24.351562 9.9375 -23.65625 C 9.9375 -22.945312 10.035156 -22.238281 10.234375 -21.53125 C 10.441406 -20.832031 10.445312 -20.082031 10.25 -19.28125 C 11.351562 -21.09375 12.28125 -23.078125 13.03125 -25.234375 C 13.78125 -27.398438 14.660156 -29.4375 15.671875 -31.34375 C 16.878906 -33.75 18.109375 -36.207031 19.359375 -38.71875 C 20.617188 -41.226562 21.953125 -43.640625 23.359375 -45.953125 C 24.554688 -47.859375 25.832031 -49.738281 27.1875 -51.59375 C 28.550781 -53.457031 29.832031 -55.34375 31.03125 -57.25 C 32.039062 -58.863281 33.347656 -60.570312 34.953125 -62.375 C 36.554688 -64.1875 38.316406 -65.191406 40.234375 -65.390625 C 42.035156 -65.691406 43.640625 -65.265625 45.046875 -64.109375 C 46.453125 -62.953125 47.503906 -61.492188 48.203125 -59.734375 C 48.910156 -57.984375 49.066406 -56.300781 48.671875 -54.6875 C 48.160156 -52.78125 47.425781 -50.894531 46.46875 -49.03125 C 45.519531 -47.175781 44.695312 -45.347656 44 -43.546875 C 43.09375 -40.929688 42.257812 -38.265625 41.5 -35.546875 C 40.75 -32.835938 39.972656 -30.179688 39.171875 -27.578125 C 40.078125 -29.484375 41.082031 -31.335938 42.1875 -33.140625 C 43.289062 -34.953125 44.445312 -36.8125 45.65625 -38.71875 L 42.640625 -34.65625 C 42.640625 -34.957031 43.265625 -35.984375 44.515625 -37.734375 C 45.773438 -39.492188 47.257812 -41.53125 48.96875 -43.84375 C 50.675781 -46.15625 52.257812 -48.238281 53.71875 -50.09375 C 55.175781 -51.957031 56.101562 -53.085938 56.5 -53.484375 C 57.90625 -54.796875 59.632812 -55.953125 61.6875 -56.953125 C 63.75 -57.953125 65.707031 -58.300781 67.5625 -58 C 69.425781 -57.707031 70.710938 -56.15625 71.421875 -53.34375 C 72.421875 -49.71875 72.265625 -45.921875 70.953125 -41.953125 C 69.648438 -37.992188 68.347656 -34.40625 67.046875 -31.1875 C 65.835938 -28.375 64.503906 -25.359375 63.046875 -22.140625 C 61.597656 -18.929688 60.570312 -15.867188 59.96875 -12.953125 C 60.164062 -13.359375 60.363281 -13.660156 60.5625 -13.859375 C 60.5625 -13.859375 60.488281 -13.253906 60.34375 -12.046875 C 60.195312 -10.847656 60.144531 -9.617188 60.1875 -8.359375 C 60.238281 -7.109375 60.46875 -6.429688 60.875 -6.328125 C 61.875 -6.128906 63.078125 -6.679688 64.484375 -7.984375 C 65.890625 -9.285156 67.242188 -10.738281 68.546875 -12.34375 C 69.859375 -13.957031 70.765625 -15.066406 71.265625 -15.671875 C 73.273438 -17.984375 75.285156 -20.316406 77.296875 -22.671875 C 79.304688 -25.035156 81.265625 -27.375 83.171875 -29.6875 C 83.367188 -29.882812 83.84375 -30.484375 84.59375 -31.484375 C 85.351562 -32.492188 86.234375 -33.523438 87.234375 -34.578125 C 88.242188 -35.628906 89.148438 -36.378906 89.953125 -36.828125 C 90.753906 -37.285156 91.304688 -37.113281 91.609375 -36.3125 C 91.710938 -36.207031 91.738281 -36.15625 91.6875 -36.15625 C 91.632812 -36.15625 91.609375 -36.15625 91.609375 -36.15625 Z M 37.515625 -46.109375 L 37.671875 -46.25 L 37.671875 -46.109375 C 37.972656 -46.910156 38.398438 -48.0625 38.953125 -49.5625 C 39.503906 -51.070312 39.953125 -52.601562 40.296875 -54.15625 C 40.648438 -55.71875 40.675781 -56.851562 40.375 -57.5625 C 40.582031 -56.75 40.410156 -55.390625 39.859375 -53.484375 C 39.304688 -51.578125 38.703125 -49.71875 38.046875 -47.90625 C 37.390625 -46.101562 36.960938 -45 36.765625 -44.59375 C 36.054688 -42.882812 35.273438 -41.148438 34.421875 -39.390625 C 33.566406 -37.640625 32.84375 -35.859375 32.25 -34.046875 C 31.738281 -32.546875 31.257812 -30.835938 30.8125 -28.921875 C 30.363281 -27.015625 30.140625 -25.207031 30.140625 -23.5 C 30.335938 -25.207031 30.738281 -26.914062 31.34375 -28.625 C 31.945312 -30.332031 32.546875 -31.941406 33.140625 -33.453125 C 33.953125 -35.460938 34.632812 -37.519531 35.1875 -39.625 C 35.738281 -41.738281 36.460938 -43.75 37.359375 -45.65625 C 37.359375 -45.65625 37.382812 -45.703125 37.4375 -45.796875 C 37.488281 -45.898438 37.566406 -46.003906 37.671875 -46.109375 Z M 37.515625 -46.109375 "/></g></g></g><g fill="#0052be" fill-opacity="1"><g transform="translate(216.564322, 151.442679)"><g><path d="M 57.703125 -37.21875 C 58.003906 -36.613281 58.078125 -36.109375 57.921875 -35.703125 C 57.773438 -35.304688 57.503906 -34.859375 57.109375 -34.359375 L 52.4375 -28.171875 L 44.296875 -17.625 C 43.296875 -16.320312 42.191406 -15.015625 40.984375 -13.703125 C 39.773438 -12.398438 38.617188 -11.046875 37.515625 -9.640625 C 36.410156 -8.140625 35.332031 -6.609375 34.28125 -5.046875 C 33.226562 -3.492188 32.046875 -2.015625 30.734375 -0.609375 C 29.429688 0.796875 27.972656 2.203125 26.359375 3.609375 C 24.753906 5.015625 23.050781 6.222656 21.25 7.234375 C 18.832031 8.535156 16.269531 8.785156 13.5625 7.984375 C 11.65625 7.484375 9.847656 6.65625 8.140625 5.5 C 6.429688 4.34375 4.921875 3.007812 3.609375 1.5 C 3.210938 1 2.863281 0.546875 2.5625 0.140625 C 2.257812 -0.253906 2.054688 -0.753906 1.953125 -1.359375 C 1.859375 -1.859375 1.785156 -2.359375 1.734375 -2.859375 C 1.679688 -3.359375 1.65625 -3.863281 1.65625 -4.375 C 1.550781 -5.269531 1.625 -6.09375 1.875 -6.84375 C 2.132812 -7.601562 2.3125 -8.4375 2.40625 -9.34375 C 2.613281 -10.34375 2.890625 -11.296875 3.234375 -12.203125 C 3.585938 -13.109375 3.816406 -14.0625 3.921875 -15.0625 C 4.117188 -16.164062 4.34375 -17.195312 4.59375 -18.15625 C 4.84375 -19.113281 5.019531 -20.09375 5.125 -21.09375 C 5.226562 -22 5.253906 -22.925781 5.203125 -23.875 C 5.148438 -24.832031 5.222656 -25.765625 5.421875 -26.671875 C 5.617188 -27.273438 5.894531 -27.875 6.25 -28.46875 C 6.601562 -29.070312 6.878906 -29.726562 7.078125 -30.4375 C 6.878906 -30.03125 6.628906 -29.601562 6.328125 -29.15625 C 6.023438 -28.707031 5.820312 -28.28125 5.71875 -27.875 C 5.519531 -27.269531 5.320312 -26.664062 5.125 -26.0625 C 4.925781 -25.457031 4.722656 -24.90625 4.515625 -24.40625 C 4.316406 -23.800781 4.140625 -23.222656 3.984375 -22.671875 C 3.835938 -22.117188 3.664062 -21.539062 3.46875 -20.9375 C 3.164062 -20.238281 2.890625 -19.585938 2.640625 -18.984375 C 2.390625 -18.378906 2.210938 -17.675781 2.109375 -16.875 C 2.003906 -16.175781 1.976562 -15.5 2.03125 -14.84375 C 2.082031 -14.1875 2.054688 -13.507812 1.953125 -12.8125 C 1.859375 -12.101562 1.734375 -11.472656 1.578125 -10.921875 C 1.429688 -10.367188 1.359375 -9.742188 1.359375 -9.046875 C 1.359375 -8.835938 1.40625 -8.554688 1.5 -8.203125 C 1.601562 -7.859375 1.65625 -7.585938 1.65625 -7.390625 C 1.65625 -7.085938 1.601562 -6.757812 1.5 -6.40625 C 1.40625 -6.050781 1.359375 -5.675781 1.359375 -5.28125 C 1.359375 -4.570312 1.40625 -3.890625 1.5 -3.234375 C 1.601562 -2.585938 1.707031 -1.863281 1.8125 -1.0625 C 0.601562 -3.164062 0 -5.296875 0 -7.453125 C 0 -9.617188 0.203125 -11.804688 0.609375 -14.015625 C 1.003906 -16.328125 1.378906 -18.5625 1.734375 -20.71875 C 2.085938 -22.875 2.515625 -25.054688 3.015625 -27.265625 C 4.015625 -31.691406 5.519531 -36.035156 7.53125 -40.296875 C 9.539062 -44.566406 11.953125 -48.460938 14.765625 -51.984375 C 17.078125 -55.097656 19.8125 -57.632812 22.96875 -59.59375 C 26.132812 -61.550781 29.726562 -62.128906 33.75 -61.328125 C 35.257812 -61.023438 36.765625 -60.519531 38.265625 -59.8125 C 39.773438 -59.113281 41.03125 -58.109375 42.03125 -56.796875 C 43.132812 -55.390625 43.6875 -53.832031 43.6875 -52.125 C 43.6875 -50.425781 43.4375 -48.722656 42.9375 -47.015625 C 41.9375 -44.097656 40.332031 -41.457031 38.125 -39.09375 C 35.914062 -36.738281 33.65625 -34.554688 31.34375 -32.546875 C 30.332031 -31.742188 29.300781 -30.9375 28.25 -30.125 C 27.195312 -29.320312 26.117188 -28.570312 25.015625 -27.875 C 24.304688 -27.46875 23.523438 -27.085938 22.671875 -26.734375 C 21.816406 -26.390625 20.988281 -26.066406 20.1875 -25.765625 L 17.625 -24.859375 C 17.125 -24.753906 16.769531 -24.675781 16.5625 -24.625 C 16.363281 -24.582031 16.164062 -24.3125 15.96875 -23.8125 C 15.570312 -23.101562 15.421875 -22.367188 15.515625 -21.609375 C 15.617188 -20.859375 15.570312 -20.082031 15.375 -19.28125 C 15.269531 -18.28125 15.09375 -17.328125 14.84375 -16.421875 C 14.59375 -15.515625 14.363281 -14.5625 14.15625 -13.5625 C 13.757812 -11.75 13.382812 -9.765625 13.03125 -7.609375 C 12.675781 -5.453125 12.703125 -3.414062 13.109375 -1.5 C 13.515625 0.40625 14.492188 1.28125 16.046875 1.125 C 17.597656 0.976562 19.300781 0.28125 21.15625 -0.96875 C 23.019531 -2.226562 24.753906 -3.5625 26.359375 -4.96875 C 27.972656 -6.375 29.082031 -7.328125 29.6875 -7.828125 C 30.488281 -8.535156 31.210938 -9.238281 31.859375 -9.9375 C 32.515625 -10.644531 33.195312 -11.347656 33.90625 -12.046875 C 34.300781 -12.554688 34.695312 -13.007812 35.09375 -13.40625 C 35.5 -13.8125 35.851562 -14.210938 36.15625 -14.609375 C 36.15625 -14.609375 36.207031 -14.757812 36.3125 -15.0625 C 36.414062 -15.363281 36.46875 -15.566406 36.46875 -15.671875 C 37.363281 -17.078125 38.390625 -18.484375 39.546875 -19.890625 C 40.703125 -21.296875 41.832031 -22.648438 42.9375 -23.953125 C 44.34375 -25.566406 45.648438 -27.203125 46.859375 -28.859375 C 48.066406 -30.515625 49.320312 -32.195312 50.625 -33.90625 C 51.125 -34.601562 51.75 -35.476562 52.5 -36.53125 C 53.257812 -37.59375 54.085938 -38.347656 54.984375 -38.796875 C 55.890625 -39.242188 56.75 -38.765625 57.5625 -37.359375 L 57.5625 -37.21875 C 57.65625 -37.113281 57.703125 -37.113281 57.703125 -37.21875 Z M 20.34375 -35.5625 C 19.9375 -34.851562 19.609375 -34.070312 19.359375 -33.21875 C 19.109375 -32.363281 18.78125 -31.535156 18.375 -30.734375 C 23.300781 -33.347656 27.519531 -36.710938 31.03125 -40.828125 L 33.59375 -44.140625 C 33.800781 -44.546875 34.078125 -44.898438 34.421875 -45.203125 C 34.773438 -45.503906 35.003906 -45.851562 35.109375 -46.25 C 35.203125 -46.65625 35.195312 -47.03125 35.09375 -47.375 C 35 -47.726562 35.003906 -48.109375 35.109375 -48.515625 L 35.703125 -51.6875 C 35.804688 -52.488281 35.65625 -53.566406 35.25 -54.921875 C 34.851562 -56.273438 34.101562 -56.851562 33 -56.65625 C 32.5 -56.550781 31.992188 -56.222656 31.484375 -55.671875 C 30.984375 -55.117188 30.582031 -54.640625 30.28125 -54.234375 L 27.578125 -50.625 C 25.960938 -48.3125 24.65625 -45.898438 23.65625 -43.390625 C 22.65625 -40.878906 21.597656 -38.421875 20.484375 -36.015625 C 20.484375 -36.015625 20.484375 -35.988281 20.484375 -35.9375 C 20.484375 -35.882812 20.4375 -35.757812 20.34375 -35.5625 Z M 20.34375 -35.5625 "/></g></g></g><g fill="#0052be" fill-opacity="1"><g transform="translate(263.423522, 151.442679)"><g><path d="M 62.375 -35.859375 C 62.570312 -34.648438 62.21875 -33.34375 61.3125 -31.9375 C 60.414062 -30.53125 59.363281 -29.175781 58.15625 -27.875 C 56.945312 -26.570312 56.046875 -25.515625 55.453125 -24.703125 C 53.835938 -22.597656 52.226562 -20.460938 50.625 -18.296875 C 49.019531 -16.140625 47.3125 -14.054688 45.5 -12.046875 C 44.59375 -11.148438 43.507812 -10.097656 42.25 -8.890625 C 41 -7.679688 39.671875 -6.75 38.265625 -6.09375 C 36.859375 -5.445312 35.453125 -5.320312 34.046875 -5.71875 C 33.742188 -5.820312 33.066406 -6.148438 32.015625 -6.703125 C 30.960938 -7.253906 29.984375 -7.859375 29.078125 -8.515625 C 28.171875 -9.171875 27.71875 -9.597656 27.71875 -9.796875 L 28.171875 -9.5 L 27.265625 -10.390625 C 27.671875 -9.796875 27.625 -9.695312 27.125 -10.09375 C 26.625 -10.5 26.320312 -10.703125 26.21875 -10.703125 C 25.8125 -11.097656 25.457031 -11.570312 25.15625 -12.125 C 24.851562 -12.675781 24.601562 -13.15625 24.40625 -13.5625 C 24.007812 -14.363281 23.757812 -15.191406 23.65625 -16.046875 C 23.550781 -16.898438 23.5 -17.726562 23.5 -18.53125 C 23.5 -19.332031 23.550781 -20.160156 23.65625 -21.015625 C 23.757812 -21.867188 23.859375 -22.695312 23.953125 -23.5 C 24.160156 -25.207031 24.335938 -26.863281 24.484375 -28.46875 C 24.628906 -30.082031 24.957031 -31.691406 25.46875 -33.296875 C 25.5625 -33.597656 25.910156 -34.476562 26.515625 -35.9375 C 27.117188 -37.394531 27.769531 -38.828125 28.46875 -40.234375 C 29.175781 -41.640625 29.679688 -42.289062 29.984375 -42.1875 C 30.179688 -42.1875 30.15625 -42.007812 29.90625 -41.65625 C 29.65625 -41.3125 29.582031 -41.085938 29.6875 -40.984375 L 31.796875 -45.203125 C 31.691406 -45.097656 31.585938 -44.96875 31.484375 -44.8125 C 31.390625 -44.664062 31.238281 -44.546875 31.03125 -44.453125 C 30.9375 -44.546875 31.238281 -45.195312 31.9375 -46.40625 C 32.644531 -47.613281 33.097656 -48.414062 33.296875 -48.8125 C 31.785156 -47.101562 30.398438 -45.34375 29.140625 -43.53125 C 27.890625 -41.726562 26.5625 -39.925781 25.15625 -38.125 C 24.15625 -36.8125 23.125 -35.675781 22.0625 -34.71875 C 21.007812 -33.769531 20.132812 -32.691406 19.4375 -31.484375 C 17.832031 -28.773438 16.148438 -26.140625 14.390625 -23.578125 C 12.628906 -21.015625 11.097656 -18.328125 9.796875 -15.515625 L 9.1875 -16.71875 C 8.28125 -15.613281 7.273438 -15.1875 6.171875 -15.4375 C 5.066406 -15.695312 4.035156 -16.300781 3.078125 -17.25 C 2.128906 -18.207031 1.40625 -19.085938 0.90625 -19.890625 C 0.195312 -21.097656 -0.101562 -22.226562 0 -23.28125 C 0.101562 -24.332031 0.203125 -25.507812 0.296875 -26.8125 C 0.503906 -28.019531 0.609375 -29.226562 0.609375 -30.4375 C 0.609375 -31.644531 0.804688 -32.898438 1.203125 -34.203125 C 1.703125 -35.804688 2.226562 -37.363281 2.78125 -38.875 C 3.332031 -40.382812 3.910156 -41.941406 4.515625 -43.546875 C 5.023438 -45.148438 5.554688 -46.726562 6.109375 -48.28125 C 6.660156 -49.84375 7.234375 -51.425781 7.828125 -53.03125 C 8.234375 -54.039062 8.738281 -55.125 9.34375 -56.28125 C 9.945312 -57.4375 10.347656 -58.515625 10.546875 -59.515625 C 10.742188 -60.316406 10.867188 -61.019531 10.921875 -61.625 C 10.972656 -62.226562 11.5 -62.832031 12.5 -63.4375 C 13.40625 -63.9375 14.332031 -64.210938 15.28125 -64.265625 C 16.238281 -64.316406 17.222656 -64.238281 18.234375 -64.03125 C 19.035156 -63.9375 19.9375 -63.585938 20.9375 -62.984375 C 21.945312 -62.378906 22.675781 -61.597656 23.125 -60.640625 C 23.582031 -59.691406 23.359375 -58.5625 22.453125 -57.25 C 21.953125 -56.550781 21.296875 -55.847656 20.484375 -55.140625 C 19.679688 -54.441406 18.976562 -53.691406 18.375 -52.890625 C 17.675781 -52.085938 17.273438 -51.40625 17.171875 -50.84375 C 17.078125 -50.289062 16.878906 -49.515625 16.578125 -48.515625 C 16.472656 -47.910156 16.171875 -47.332031 15.671875 -46.78125 C 15.171875 -46.226562 14.769531 -45.648438 14.46875 -45.046875 C 14.0625 -44.242188 13.679688 -43.335938 13.328125 -42.328125 C 12.984375 -41.328125 12.660156 -40.328125 12.359375 -39.328125 C 12.253906 -38.722656 12.203125 -38.171875 12.203125 -37.671875 C 12.203125 -37.171875 12.148438 -36.617188 12.046875 -36.015625 C 11.953125 -34.398438 11.703125 -32.8125 11.296875 -31.25 C 10.898438 -29.695312 10.597656 -28.117188 10.390625 -26.515625 C 10.492188 -26.816406 10.722656 -27.164062 11.078125 -27.5625 C 11.429688 -27.96875 11.65625 -28.125 11.75 -28.03125 C 11.851562 -27.925781 11.628906 -27.445312 11.078125 -26.59375 C 10.523438 -25.738281 10.296875 -25.3125 10.390625 -25.3125 L 19.28125 -38.265625 C 18.28125 -36.960938 17.453125 -35.910156 16.796875 -35.109375 C 16.148438 -34.304688 15.828125 -33.90625 15.828125 -33.90625 C 15.722656 -34 16.25 -34.820312 17.40625 -36.375 C 18.5625 -37.9375 20.039062 -39.894531 21.84375 -42.25 C 23.65625 -44.613281 25.539062 -47 27.5 -49.40625 C 29.457031 -51.820312 31.164062 -53.929688 32.625 -55.734375 C 34.082031 -57.546875 35.007812 -58.65625 35.40625 -59.0625 C 37.613281 -61.070312 39.921875 -61.925781 42.328125 -61.625 C 44.742188 -61.320312 46.457031 -59.414062 47.46875 -55.90625 C 48.269531 -53.382812 48.140625 -51.117188 47.078125 -49.109375 C 46.023438 -47.109375 44.617188 -45.203125 42.859375 -43.390625 C 41.109375 -41.585938 39.628906 -39.78125 38.421875 -37.96875 C 37.421875 -36.457031 36.515625 -34.847656 35.703125 -33.140625 C 34.898438 -31.441406 34.097656 -29.785156 33.296875 -28.171875 C 32.796875 -27.171875 32.117188 -25.738281 31.265625 -23.875 C 30.410156 -22.019531 29.882812 -20.238281 29.6875 -18.53125 C 29.882812 -19.632812 30.285156 -20.8125 30.890625 -22.0625 C 31.492188 -23.320312 31.945312 -24.304688 32.25 -25.015625 C 33.445312 -28.128906 35.203125 -30.789062 37.515625 -33 C 37.015625 -31.988281 36.488281 -31.03125 35.9375 -30.125 C 35.382812 -29.226562 34.859375 -28.328125 34.359375 -27.421875 L 35.109375 -28.328125 C 35.203125 -28.328125 35.125 -27.898438 34.875 -27.046875 C 34.625 -26.191406 34.375 -25.3125 34.125 -24.40625 C 33.875 -23.5 33.695312 -23 33.59375 -22.90625 C 33.289062 -22 33.015625 -21.066406 32.765625 -20.109375 C 32.515625 -19.160156 32.34375 -18.179688 32.25 -17.171875 C 32.144531 -17.078125 32.117188 -16.625 32.171875 -15.8125 C 32.222656 -15.007812 32.25 -14.609375 32.25 -14.609375 L 32.390625 -14.46875 C 32.390625 -14.5625 32.585938 -14.632812 32.984375 -14.6875 C 33.390625 -14.738281 33.644531 -14.816406 33.75 -14.921875 C 34.851562 -15.316406 35.957031 -15.96875 37.0625 -16.875 C 38.164062 -17.78125 39.171875 -18.582031 40.078125 -19.28125 C 41.890625 -20.6875 43.671875 -22.164062 45.421875 -23.71875 C 47.179688 -25.28125 48.914062 -26.816406 50.625 -28.328125 C 51.925781 -29.535156 53.332031 -30.738281 54.84375 -31.9375 C 56.351562 -33.144531 57.609375 -34.398438 58.609375 -35.703125 C 59.109375 -36.410156 59.757812 -37.066406 60.5625 -37.671875 C 61.375 -38.273438 61.976562 -37.671875 62.375 -35.859375 Z M 62.375 -35.859375 "/></g></g></g></g></g></svg>